<svg width="30" height="30" viewBox="0 0 30 30" fill="none" xmlns="http://www.w3.org/2000/svg">
<path fill-rule="evenodd" clip-rule="evenodd" d="M0 15C0 8.75045 0 5.62567 1.59152 3.43512C2.10552 2.72767 2.72767 2.10552 3.43512 1.59152C5.62567 0 8.75045 0 15 0C21.2496 0 24.3743 0 26.5649 1.59152C27.2723 2.10552 27.8945 2.72767 28.4085 3.43512C30 5.62567 30 8.75045 30 15C30 21.2496 30 24.3743 28.4085 26.5649C27.8945 27.2723 27.2723 27.8945 26.5649 28.4085C24.3743 30 21.2496 30 15 30C8.75045 30 5.62567 30 3.43512 28.4085C2.72767 27.8945 2.10552 27.2723 1.59152 26.5649C0 24.3743 0 21.2496 0 15ZM15 12.0833C15.6904 12.0833 16.25 12.643 16.25 13.3333V23.3333C16.25 24.0237 15.6904 24.5833 15 24.5833C14.3096 24.5833 13.75 24.0237 13.75 23.3333V13.3333C13.75 12.643 14.3096 12.0833 15 12.0833ZM15 10C15.9205 10 16.6667 9.25381 16.6667 8.33333C16.6667 7.41286 15.9205 6.66667 15 6.66667C14.0795 6.66667 13.3333 7.41286 13.3333 8.33333C13.3333 9.25381 14.0795 10 15 10Z" fill="white"/>
</svg>
