<svg width="27" height="19" viewBox="0 0 27 19" fill="none" xmlns="http://www.w3.org/2000/svg">
<path d="M17.9916 12.9603C16.6319 12.8782 15.5629 11.8413 15.5629 10.5738C15.5629 10.5315 15.5638 10.4892 15.5665 10.4469V10.4527C15.5638 10.4129 15.562 10.3664 15.562 10.3191C15.562 9.05414 16.6328 8.02056 17.9844 7.94508H17.9916C19.3495 8.0131 20.4221 9.04418 20.4221 10.3067C20.4221 10.3581 20.4203 10.4087 20.4167 10.4593V10.4527C20.4194 10.4942 20.4212 10.5431 20.4212 10.5921C20.4212 11.8554 19.3495 12.8881 17.9979 12.9595H17.9907L17.9916 12.9603ZM9.0237 12.9603C7.66402 12.8782 6.595 11.8413 6.595 10.5738C6.595 10.5315 6.5959 10.4892 6.5986 10.4469V10.4527C6.5959 10.4129 6.5941 10.3664 6.5941 10.3191C6.5941 9.05414 7.66492 8.02056 9.0165 7.94508H9.0237C10.3816 8.0131 11.4542 9.04418 11.4542 10.3067C11.4542 10.3581 11.4524 10.4087 11.4488 10.4593V10.4527C11.4515 10.4925 11.4533 10.539 11.4533 10.5862C11.4533 11.8513 10.3825 12.8848 9.0309 12.9603H9.0237ZM22.8517 1.59764C21.2653 0.907488 19.4224 0.361668 17.4931 0.0456231L17.359 0.0273739C17.3545 0.0265444 17.3491 0.025715 17.3437 0.025715C17.3122 0.025715 17.2852 0.0414757 17.2708 0.0647021C17.0603 0.405632 16.8317 0.831172 16.6256 1.2675L16.5869 1.35957C15.6601 1.2227 14.5911 1.14473 13.5022 1.14473C12.4134 1.14473 11.3444 1.2227 10.3015 1.37284L10.4176 1.35874C10.1746 0.836149 9.94244 0.411439 9.68599 0L9.72288 0.0638726C9.70758 0.0398168 9.67969 0.0248852 9.64819 0.0248852C9.64369 0.0248852 9.63829 0.0248855 9.63379 0.025715C7.57044 0.360009 5.72755 0.904999 4.00523 1.64907L4.14111 1.59598C4.12581 1.60179 4.11321 1.61174 4.10512 1.62419C1.53694 4.97625 0 9.14704 0 13.6488C0 14.4012 0.0431928 15.1436 0.126879 15.8752L0.11878 15.784C0.12148 15.808 0.134978 15.8279 0.153874 15.842C2.07955 17.1701 4.31838 18.2402 6.73448 18.9428L6.89285 18.9826C6.90005 18.9851 6.90905 18.9859 6.91805 18.9859C6.94684 18.9859 6.97204 18.9735 6.98733 18.9544C7.46875 18.3571 7.92678 17.6802 8.32361 16.9702L8.36591 16.8872C8.3713 16.8773 8.3749 16.8648 8.3749 16.8516C8.3749 16.8176 8.35151 16.7893 8.31911 16.7777H8.31821C7.49755 16.4857 6.80377 16.1747 6.14328 15.818L6.21256 15.8528C6.18647 15.8387 6.16937 15.813 6.16937 15.784C6.16937 15.7583 6.18287 15.735 6.20357 15.7209C6.34484 15.6231 6.48702 15.5219 6.622 15.419C6.63639 15.4082 6.65529 15.4016 6.67509 15.4016C6.68769 15.4016 6.69938 15.4041 6.70928 15.4082H6.70838C8.69525 16.2883 11.0277 16.8026 13.4897 16.8026C15.9516 16.8026 18.285 16.2883 20.3672 15.3701L20.2709 15.4082C20.2817 15.4032 20.2934 15.4007 20.3069 15.4007C20.3267 15.4007 20.3456 15.4074 20.36 15.4182C20.495 15.521 20.6363 15.6239 20.7793 15.7209C20.8 15.7359 20.8135 15.7591 20.8135 15.7848C20.8135 15.8138 20.7964 15.8387 20.7721 15.8528C20.1773 16.1805 19.4836 16.4907 18.761 16.747L18.6665 16.7769C18.6341 16.7885 18.6107 16.8176 18.6107 16.8507C18.6107 16.864 18.6143 16.8764 18.6206 16.8872C19.0714 17.6836 19.5285 18.3588 20.0343 19L19.9983 18.9527C20.0136 18.9726 20.0397 18.9859 20.0676 18.9859C20.0766 18.9859 20.0856 18.9842 20.0937 18.9826C22.6717 18.2427 24.9141 17.1726 26.901 15.8039L26.8425 15.8429C26.8623 15.8296 26.8749 15.8089 26.8776 15.7856C26.9559 15.1353 27 14.3804 27 13.6165C27 9.12465 25.4595 4.96464 22.84 1.56031L22.8868 1.62502C22.8796 1.61174 22.867 1.60096 22.8526 1.59515L22.8517 1.59764Z" fill="white"/>
</svg>
