<svg width="26" height="34" viewBox="0 0 26 34" fill="none" xmlns="http://www.w3.org/2000/svg">
<path d="M4.53785 0.500006C3.81184 0.49992 3.14618 0.49984 2.60469 0.573288C2.00841 0.654169 1.37816 0.844464 0.859795 1.36743C0.341433 1.89039 0.152812 2.52623 0.0726433 3.12781C-0.000158128 3.67411 -7.97438e-05 4.34567 5.84069e-06 5.07813L1.05398e-05 32.2308C1.05398e-05 32.9317 0.563265 33.5 1.25807 33.5C1.95288 33.5 2.51614 32.9317 2.51614 32.2308L2.51614 21.6538H21.7191C24.0834 21.6538 26 19.7202 26 17.335C26 15.9128 25.306 14.5818 24.1444 13.776L23.6726 13.4488C22.0237 12.3051 22.0237 9.84874 23.6726 8.70502L24.1444 8.37781C25.306 7.5721 26 6.24107 26 4.81888C26 2.43364 24.0834 0.500012 21.7191 0.500012L4.53785 0.500006Z" fill="white"/>
</svg>
