<svg width="30" height="30" viewBox="0 0 30 30" fill="none" xmlns="http://www.w3.org/2000/svg">
<path fill-rule="evenodd" clip-rule="evenodd" d="M15.0696 2.03596e-07C17.8951 -1.23592e-05 20.1098 -2.23517e-05 21.867 0.190351C23.6601 0.384625 25.113 0.788191 26.3535 1.68947C27.1045 2.23509 27.7649 2.89552 28.3105 3.64652C29.2118 4.88701 29.6154 6.33991 29.8097 8.13304C30 9.89014 30 12.1049 30 14.9302V15.0697C30 17.895 30 20.1099 29.8097 21.867C29.6154 23.6601 29.2118 25.113 28.3105 26.3535C27.7649 27.1045 27.1045 27.7649 26.3535 28.3105C25.113 29.2118 23.6601 29.6154 21.867 29.8097C20.1099 30 17.8951 30 15.0698 30H14.9303C12.105 30 9.89014 30 8.13304 29.8097C6.33991 29.6154 4.88701 29.2118 3.64652 28.3105C2.89552 27.7649 2.23509 27.1045 1.68947 26.3535C0.788191 25.113 0.384625 23.6601 0.190351 21.867C-2.23517e-05 20.1098 -1.23592e-05 17.8951 2.03596e-07 15.0696V14.9304C-1.23592e-05 12.1049 -2.23517e-05 9.89017 0.190351 8.13304C0.384625 6.33991 0.788191 4.88701 1.68947 3.64652C2.23509 2.89552 2.89552 2.23509 3.64652 1.68947C4.88701 0.788191 6.33991 0.384625 8.13304 0.190351C9.89017 -2.23517e-05 12.1049 -1.23592e-05 14.9304 2.03596e-07H15.0696ZM23.7282 11.1125C24.0089 10.5404 23.7726 9.84911 23.2005 9.56846C22.6283 9.28782 21.937 9.52411 21.6564 10.0962L19.4097 14.6763C18.7133 16.0959 16.6666 16.0266 16.0679 14.5631C14.7154 11.2569 10.0916 11.1003 8.51843 14.3074L6.27177 18.8874C5.99112 19.4596 6.22741 20.1509 6.79954 20.4315C7.37167 20.7122 8.06297 20.4759 8.34362 19.9038L10.5903 15.3237C11.2867 13.9041 13.3334 13.9734 13.9321 15.4369C15.2846 18.7431 19.9084 18.8997 21.4816 15.6926L23.7282 11.1125Z" fill="white"/>
</svg>
