<svg width="30" height="30" viewBox="0 0 30 30" fill="none" xmlns="http://www.w3.org/2000/svg">
<path fill-rule="evenodd" clip-rule="evenodd" d="M30 15C30 23.2843 23.2843 30 15 30C6.71573 30 0 23.2843 0 15C0 6.71573 6.71573 0 15 0C23.2843 0 30 6.71573 30 15ZM15 12.375C15.6213 12.375 16.125 12.8787 16.125 13.5V22.5C16.125 23.1213 15.6213 23.625 15 23.625C14.3787 23.625 13.875 23.1213 13.875 22.5V13.5C13.875 12.8787 14.3787 12.375 15 12.375ZM15 10.5C15.8284 10.5 16.5 9.82843 16.5 9C16.5 8.17157 15.8284 7.5 15 7.5C14.1716 7.5 13.5 8.17157 13.5 9C13.5 9.82843 14.1716 10.5 15 10.5Z" fill="white"/>
</svg>
