<svg width="21" height="22" viewBox="0 0 21 22" fill="none" xmlns="http://www.w3.org/2000/svg">
<path fill-rule="evenodd" clip-rule="evenodd" d="M10.4919 22C7.25374 21.9976 4.64534 21.2216 2.82282 19.8279C0.978433 18.4174 0 16.4158 0 14.1508C0 11.9685 0.976292 10.3949 2.08096 9.33123C2.94667 8.49764 3.902 7.96376 4.56721 7.65667C4.41678 7.19565 4.22911 6.5921 4.06119 5.96872C3.83652 5.13456 3.6161 4.15586 3.6161 3.43867C3.6161 2.58978 3.80143 1.73726 4.30114 1.07482C4.82911 0.374935 5.62393 0 6.58011 0C7.32742 0 7.96187 0.276821 8.45858 0.754366C8.93336 1.21083 9.24936 1.81703 9.46754 2.44896C9.85093 3.55937 10.0002 4.95441 10.0421 6.3466H10.958C10.9999 4.95441 11.1491 3.55937 11.5325 2.44896C11.7507 1.81703 12.0666 1.21083 12.5415 0.754366C13.0382 0.276821 13.6726 0 14.4199 0C15.3762 0 16.1709 0.374935 16.6989 1.07482C17.1986 1.73726 17.384 2.58978 17.384 3.43867C17.384 4.15586 17.1635 5.13456 16.9389 5.96872C16.7709 6.5921 16.5832 7.19565 16.4328 7.65667C17.098 7.96376 18.0534 8.49764 18.9191 9.33123C20.0238 10.3949 21 11.9685 21 14.1508C21 16.4158 20.0217 18.4174 18.1772 19.8279C16.3547 21.2216 13.7463 21.9976 10.5081 22H10.4919Z" fill="#633001"/>
<path d="M6.58007 0.807339C5.17958 0.807339 4.53491 1.86137 4.53491 3.31907C4.53491 4.47773 5.28396 6.79821 5.5913 7.70153C5.66043 7.90471 5.55181 8.12732 5.35371 8.20611C4.23126 8.6526 0.918804 10.2874 0.918804 14.0313C0.918804 17.9751 4.28502 20.9488 10.4926 20.9535C10.495 20.9535 10.4975 20.9534 10.5 20.9534C10.5025 20.9534 10.5049 20.9535 10.5074 20.9535C16.7149 20.9488 20.0811 17.9751 20.0811 14.0313C20.0811 10.2874 16.7687 8.6526 15.6463 8.20611C15.4482 8.12732 15.3396 7.90471 15.4087 7.70153C15.716 6.79821 16.4651 4.47773 16.4651 3.31907C16.4651 1.86137 15.8204 0.807339 14.4199 0.807339C12.404 0.807339 11.9014 3.68819 11.8655 6.78005C11.8632 6.98646 11.6977 7.15394 11.4932 7.15394H9.50683C9.30221 7.15394 9.1368 6.98646 9.13441 6.78005C9.09856 3.68819 8.59605 0.807339 6.58007 0.807339Z" fill="#D1884F"/>
<path d="M10.5074 19.6902C5.94639 19.6902 0.926691 17.2272 0.918826 14.0389C0.918815 14.0437 0.918804 14.0487 0.918804 14.0537C0.918804 18.0007 4.29038 20.9759 10.5074 20.9759C16.7244 20.9759 20.096 18.0007 20.096 14.0537C20.096 14.0487 20.096 14.0437 20.096 14.0389C20.0881 17.2272 15.0684 19.6902 10.5074 19.6902Z" fill="#FEDC90"/>
<path d="M7.97318 13.0595C7.97318 14.136 7.46891 14.6966 6.84686 14.6966C6.2248 14.6966 5.72053 14.136 5.72053 13.0595C5.72053 11.983 6.2248 11.4224 6.84686 11.4224C7.46891 11.4224 7.97318 11.983 7.97318 13.0595Z" fill="#633001"/>
<path d="M15.2943 13.0595C15.2943 14.136 14.79 14.6966 14.168 14.6966C13.5459 14.6966 13.0417 14.136 13.0417 13.0595C13.0417 11.983 13.5459 11.4224 14.168 11.4224C14.79 11.4224 15.2943 11.983 15.2943 13.0595Z" fill="#633001"/>
</svg>
