<svg width="24" height="19" viewBox="0 0 24 19" fill="none" xmlns="http://www.w3.org/2000/svg">
<path d="M23.9988 2.25551C23.1 2.64264 22.1467 2.89689 21.1707 3.00985C22.1995 2.41077 22.9694 1.46794 23.3371 0.35705C22.3717 0.916499 21.3132 1.30857 20.21 1.52066C19.4689 0.74864 18.4867 0.236635 17.416 0.0642389C16.3452 -0.108157 15.246 0.0687171 14.2892 0.567363C13.3323 1.06601 12.5715 1.85849 12.1249 2.8216C11.6784 3.78471 11.5711 4.86449 11.8199 5.89307C9.86198 5.79752 7.94662 5.30212 6.19814 4.43904C4.44966 3.57595 2.90714 2.36447 1.67072 0.883253C1.23307 1.61518 1.00309 2.44722 1.00432 3.29416C1.00432 4.95645 1.87323 6.42501 3.19427 7.28482C2.41249 7.26085 1.64792 7.05528 0.964286 6.68524V6.74485C0.964522 7.85195 1.35797 8.92489 2.07792 9.78177C2.79787 10.6386 3.80002 11.2267 4.91444 11.4463C4.18871 11.6378 3.42776 11.666 2.68917 11.5288C3.00338 12.4818 3.61579 13.3152 4.44065 13.9123C5.26551 14.5095 6.26153 14.8406 7.28925 14.8592C6.26783 15.6402 5.09832 16.2176 3.84758 16.5583C2.59684 16.899 1.2894 16.9964 0 16.8447C2.25082 18.2542 4.87099 19.0024 7.5471 19C16.6048 19 21.5581 11.6939 21.5581 5.3577C21.5581 5.15134 21.5522 4.9427 21.5428 4.73864C22.5069 4.06015 23.339 3.21966 24 2.25665L23.9988 2.25551Z" fill="white"/>
</svg>
